<svg width="96" height="56" viewBox="0 0 96 56" fill="none" xmlns="http://www.w3.org/2000/svg">
<path d="M19.7911 19.8636H42.9548C43.4105 19.8636 43.7752 19.499 43.7752 19.0432V15.8435C43.7752 15.3877 43.4105 15.0231 42.9548 15.0231H37.5034V0.820435C37.5034 0.364638 37.1388 0 36.683 0H26.4549C25.9991 0 25.6345 0.364638 25.6345 0.820435V15.0231H19.7911C19.3353 15.0231 18.9707 15.3877 18.9707 15.8435V19.0432C18.9707 19.499 19.3445 19.8636 19.7911 19.8636ZM27.2753 1.64087H35.8625V15.0231H27.2753V1.64087ZM20.6116 16.6639H26.4093C26.4275 16.6639 26.4367 16.6731 26.4549 16.6731H36.683C36.7012 16.6731 36.7103 16.6639 36.7286 16.6639H42.1434V18.2228H20.6116V16.6639Z" fill="#F2F2F2"/>
<path d="M95.1796 0.610779H70.1654C69.7096 0.610779 69.345 0.975417 69.345 1.43121V27.4663H39.3809C39.5905 27.3205 39.7364 27.0835 39.7364 26.81C39.7364 26.3542 39.3718 25.9896 38.916 25.9896H33.6196C33.1638 25.9896 32.7992 26.3542 32.7992 26.81C32.7992 27.0835 32.945 27.3205 33.1547 27.4663H29.2531C29.4627 27.3205 29.6086 27.0835 29.6086 26.81C29.6086 26.3542 29.2439 25.9896 28.7882 25.9896H23.4918C23.036 25.9896 22.6714 26.3542 22.6714 26.81C22.6714 27.0835 22.8172 27.3205 23.0269 27.4663H0.820435C0.364638 27.4663 0 27.831 0 28.2868V54.2855C0 54.7413 0.364638 55.1059 0.820435 55.1059H69.7643C69.8828 55.1788 70.0196 55.2244 70.1654 55.2244H95.1796C95.6354 55.2244 96 54.8598 96 54.404V1.43121C96 0.975417 95.6263 0.610779 95.1796 0.610779ZM94.3591 2.25165V17.6941H70.9859V2.25165H94.3591ZM69.2356 41.2679H43.2643V29.1072H69.2356V41.2679ZM41.6234 34.6133H21.1034V29.1072H41.6234V34.6133ZM21.1034 36.2541H41.6234V53.465H21.1034V36.2541ZM1.64087 29.1072H19.4625V53.465H1.64087V29.1072ZM43.2643 53.465V42.9088H69.2356V53.465H43.2643ZM70.9859 53.5835V19.3349H94.3591V53.5835H70.9859Z" fill="#F2F2F2"/>
<path d="M17.0831 37.5668C16.6273 37.5668 16.2627 37.9314 16.2627 38.3872V44.7957C16.2627 45.2515 16.6273 45.6162 17.0831 45.6162C17.5389 45.6162 17.9036 45.2515 17.9036 44.7957V38.3872C17.9036 37.9314 17.5389 37.5668 17.0831 37.5668Z" fill="#F2F2F2"/>
<path d="M51.5782 36.0444H60.0834C60.5392 36.0444 60.9039 35.6798 60.9039 35.224C60.9039 34.7682 60.5392 34.4036 60.0834 34.4036H51.5782C51.1225 34.4036 50.7578 34.7682 50.7578 35.224C50.7578 35.6798 51.1225 36.0444 51.5782 36.0444Z" fill="#F2F2F2"/>
<path d="M60.3197 47.2479H51.8146C51.3588 47.2479 50.9941 47.6126 50.9941 48.0684C50.9941 48.5242 51.3588 48.8888 51.8146 48.8888H60.3197C60.7755 48.8888 61.1402 48.5242 61.1402 48.0684C61.1402 47.6217 60.7755 47.2479 60.3197 47.2479Z" fill="#F2F2F2"/>
<path d="M37.9403 38.524H24.3849C23.9291 38.524 23.5645 38.8886 23.5645 39.3444V48.7065C23.5645 49.1623 23.9291 49.5269 24.3849 49.5269H37.9403C38.3961 49.5269 38.7607 49.1623 38.7607 48.7065V39.3535C38.7607 38.8977 38.387 38.524 37.9403 38.524ZM37.1199 47.8952H25.2053V40.174H37.1199V47.8952Z" fill="#F2F2F2"/>
<path d="M75.0333 15.014C75.4891 15.014 75.8538 14.6493 75.8538 14.1935V7.42038C75.8538 6.96458 75.4891 6.59995 75.0333 6.59995C74.5775 6.59995 74.2129 6.96458 74.2129 7.42038V14.1935C74.2129 14.6493 74.5775 15.014 75.0333 15.014Z" fill="#F2F2F2"/>
<path d="M74.6593 22.8537C74.2035 22.8537 73.8389 23.2183 73.8389 23.6741V30.4473C73.8389 30.903 74.2035 31.2677 74.6593 31.2677C75.1151 31.2677 75.4797 30.903 75.4797 30.4473V23.6741C75.4797 23.2183 75.1151 22.8537 74.6593 22.8537Z" fill="#F2F2F2"/>
</svg>
