<svg width="75" height="56" viewBox="0 0 75 56" fill="none" xmlns="http://www.w3.org/2000/svg">
<path d="M72.9735 53.6403C71.5746 53.685 70.1718 53.6539 68.6891 53.6539C68.8762 53.0669 68.3345 52.4371 69.1976 52.1047C71.107 51.37 72.1338 49.7975 71.8903 47.7663C71.6194 45.531 71.2902 43.2879 70.7661 41.1012C70.4446 39.7619 69.8386 38.446 69.1275 37.2584C68.4806 36.1796 67.3564 36.2243 66.6044 37.2467C66.1368 37.8804 65.7627 38.6151 65.4958 39.3576C64.5099 42.0944 64.1144 44.9556 63.8319 47.8343C63.6604 49.5895 64.6073 51.2378 66.203 51.9803C67.1421 52.4177 67.1986 52.5498 66.922 53.6111C64.2566 53.6111 61.5932 53.6111 58.9162 53.6111C58.9162 47.0529 58.9162 40.5375 58.9162 33.884C59.1831 34.1678 59.3643 34.3466 59.5299 34.541C60.5041 35.6898 61.4646 36.8502 62.4466 37.9912C62.9532 38.5801 63.5085 38.6501 64.0365 38.2341C64.5956 37.7968 64.6541 37.1204 64.1826 36.5023C64.0657 36.3487 63.939 36.199 63.8143 36.0513C53.8856 24.3072 43.9607 12.5611 34.0377 0.815048C33.1298 -0.259845 32.5686 -0.26762 31.6178 0.768398C28.1011 4.59758 24.5746 8.41899 21.0734 12.2598C20.6779 12.6933 20.2804 12.8527 19.6959 12.8488C15.2244 12.8235 10.753 12.8352 6.28148 12.8352C4.78125 12.8352 4.49679 13.117 4.49679 14.6137C4.49679 27.3181 4.49679 40.0224 4.49679 52.7267C4.49679 53.0105 4.49679 53.2962 4.49679 53.617C4.2591 53.6325 4.09349 53.6519 3.92982 53.6539C3.00631 53.6578 2.08279 53.6364 1.15927 53.6656C0.465656 53.6869 0 54.1865 0 54.8221C0.00194835 55.4577 0.469553 55.9281 1.16317 55.9825C1.33267 55.9961 1.50413 55.9864 1.67363 55.9864C25.4416 55.9864 49.2076 55.9844 72.9755 56C73.6866 56 74.2517 55.8484 74.6667 55.2594C74.6667 54.9679 74.6667 54.6763 74.6667 54.3847C74.2517 53.79 73.6866 53.617 72.9735 53.6403ZM22.5658 53.5975C19.992 53.5975 17.4066 53.5975 14.7666 53.5975C14.7666 50.9365 14.7666 48.258 14.7666 45.5213C17.389 45.5213 19.957 45.5213 22.5658 45.5213C22.5658 48.2153 22.5658 50.8782 22.5658 53.5975ZM14.7529 43.1266C14.7529 36.1563 14.7529 29.2171 14.7529 22.2215C17.3267 22.2215 19.9121 22.2215 22.5522 22.2215C22.5522 29.1588 22.5522 36.1135 22.5522 43.1266C19.9297 43.1266 17.3618 43.1266 14.7529 43.1266ZM27.0762 53.6072C26.3904 53.6072 25.6988 53.6072 24.8902 53.6072C24.8902 53.3079 24.8902 53.0047 24.8902 52.7015C24.8902 42.3996 24.8902 32.0997 24.8902 21.7978C24.8902 21.5801 24.898 21.3605 24.8863 21.1428C24.8376 20.27 24.4226 19.8385 23.5614 19.8366C20.2804 19.8268 16.9994 19.8268 13.7183 19.8366C12.8143 19.8405 12.4032 20.307 12.4013 21.2905C12.3954 24.278 12.3993 27.2675 12.3993 30.2551C12.3993 37.7385 12.3993 45.22 12.3993 52.7034C12.3993 52.9911 12.3993 53.2768 12.3993 53.6306C10.4977 53.6306 8.70523 53.6306 6.8504 53.6306C6.8504 40.8252 6.8504 28.0392 6.8504 15.2104C13.5722 15.2104 20.296 15.2104 27.0762 15.2104C27.0762 27.9886 27.0762 40.7746 27.0762 53.6072ZM29.4162 14.5884C29.4162 13.1598 29.0908 12.8371 27.6549 12.8371C26.3534 12.8371 25.0519 12.8371 23.5751 12.8371C26.7041 9.4589 29.7124 6.21089 32.7654 2.91235C40.4906 12.0305 48.1808 21.1078 55.943 30.2687C47.0761 30.2687 38.3046 30.2687 29.4162 30.2687C29.4162 30.0121 29.4162 29.7341 29.4162 29.4542C29.4182 24.4977 29.4182 19.5431 29.4162 14.5884ZM38.4429 53.6053C35.4756 53.6053 32.5024 53.6053 29.4727 53.6053C29.4727 46.6583 29.4727 39.7075 29.4727 32.6867C32.479 32.6867 35.4347 32.6867 38.4429 32.6867C38.4429 39.6531 38.4429 46.6059 38.4429 53.6053ZM56.5178 53.5917C51.3001 53.5917 46.0668 53.5917 40.7459 53.5917C40.7459 46.6311 40.7459 39.6958 40.7459 32.71C46.0045 32.71 51.2377 32.71 56.5178 32.71C56.5178 39.657 56.5178 46.5942 56.5178 53.5917ZM68.5644 49.0492C68.5216 48.5263 68.2683 48.1531 67.6994 48.1706C67.1675 48.1861 66.9492 48.5574 66.9161 49.0492C66.8869 49.4787 66.8752 49.9083 66.8518 50.4312C65.9244 49.9608 65.4685 49.226 65.5094 48.3183C65.5679 46.9907 65.7003 45.6534 65.9478 44.3492C66.2459 42.7806 66.6804 41.2353 67.0973 39.692C67.224 39.2196 67.487 38.7823 67.7675 38.1467C68.0306 38.6462 68.2352 38.9436 68.3521 39.2702C69.3457 42.0789 69.8874 44.9828 70.1173 47.9451C70.203 49.053 69.7334 49.9063 68.6346 50.4603C68.6092 49.9433 68.6014 49.4962 68.5644 49.0492Z" fill="#F2F2F2"/>
</svg>
