<svg width="49" height="50" viewBox="0 0 49 50" fill="none" xmlns="http://www.w3.org/2000/svg">
<path d="M48.999 15.1058C48.999 14.9674 49.005 14.8229 48.987 14.6844C48.9207 14.2931 48.6679 14.0643 48.2766 14.0703C47.9093 14.0764 47.6685 14.3051 47.6083 14.6784C47.5843 14.8289 47.5903 14.9914 47.5903 15.148C47.5903 18.0256 47.5903 20.8972 47.5903 23.7749C47.5903 23.9434 47.5903 24.106 47.5903 24.2685C40.2637 24.2685 33.0094 24.2685 25.725 24.2685C25.725 16.9781 25.725 9.71776 25.725 2.43938C33.0215 2.43938 40.2878 2.43938 47.5903 2.43938C47.5903 2.63804 47.5903 2.80661 47.5903 2.97517C47.5903 5.85281 47.5903 8.72444 47.5903 11.6021C47.5903 11.7706 47.5481 11.9934 47.6324 12.1018C47.801 12.3125 48.0298 12.5472 48.2706 12.6135C48.6077 12.7038 48.8605 12.4569 48.9569 12.1198C49.005 11.9573 48.993 11.7767 48.993 11.6081C48.993 8.42343 48.993 5.23274 48.993 2.04806C48.993 1.21126 48.7883 1.00657 47.9334 1.00657C36.9948 1.00657 26.0561 1.00657 15.1175 1.00657C14.9609 1.00657 14.8044 1.00055 14.6479 1.02463C14.2746 1.09086 14.0579 1.33768 14.0519 1.69889C14.0459 2.06612 14.2626 2.31295 14.6359 2.38519C14.7864 2.41529 14.9489 2.40325 15.1054 2.40927C17.9831 2.40927 20.8547 2.40927 23.7323 2.40927C23.9009 2.40927 24.0695 2.40927 24.244 2.40927C24.244 9.7298 24.244 16.9962 24.244 24.2685C16.9476 24.2685 9.68727 24.2685 2.39082 24.2685C2.39082 24.0699 2.39082 23.8953 2.39082 23.7267C2.39082 20.837 2.39082 17.9473 2.39082 15.0516C2.39082 14.6603 2.36674 14.2931 1.93329 14.1185C1.51188 13.9439 1.24699 14.2209 0.994141 14.5038C0.994141 26.0023 0.994141 37.5069 0.994141 49.0054C12.5107 49.0054 24.0032 49.0054 35.4958 49.0054C35.7787 48.7526 36.0556 48.4877 35.875 48.0542C35.7004 47.6268 35.3332 47.5967 34.9419 47.5967C32.0522 47.6027 29.1625 47.5967 26.2728 47.5967C26.1043 47.5967 25.9357 47.5967 25.731 47.5967C25.731 40.3002 25.731 33.0459 25.731 25.7495C32.9974 25.7495 40.2637 25.7495 47.5602 25.7495C47.5602 33.0098 47.5602 40.2641 47.5602 47.5967C47.4037 47.5967 47.2411 47.5967 47.0786 47.5967C44.2491 47.5967 41.4256 47.5967 38.5961 47.5967C38.4998 47.5967 38.4095 47.6027 38.3132 47.5967C37.9098 47.5786 37.5426 47.6509 37.3921 48.0783C37.2416 48.5118 37.4944 48.7887 37.8316 49.0054C41.3955 49.0054 44.9595 49.0054 48.5234 49.0054C48.9207 48.7706 48.999 48.4034 48.999 47.9639C48.999 37.0132 48.999 26.0625 48.999 15.1058ZM24.2501 47.5726C16.9837 47.5726 9.72339 47.5726 2.43296 47.5726C2.43296 40.3063 2.43296 33.0339 2.43296 25.7254C9.71737 25.7254 16.9657 25.7254 24.2501 25.7254C24.2501 33.0158 24.2501 40.2822 24.2501 47.5726Z" fill="#F2F2F2"/>
<path d="M1.92125 12.6014C2.34868 12.4509 2.42092 12.0837 2.40286 11.6864C2.39684 11.59 2.40286 11.4997 2.40286 11.4034C2.40286 8.57394 2.40286 5.75047 2.40286 2.92099C2.40286 2.75845 2.40286 2.58988 2.40286 2.40928C2.64367 2.40928 2.81223 2.40928 2.98682 2.40928C5.8464 2.40928 8.70598 2.40928 11.5595 2.40928C11.7161 2.40928 11.8726 2.42132 12.0291 2.39122C12.3903 2.31898 12.6251 2.10827 12.6311 1.72298C12.6372 1.31361 12.4024 1.09086 12.0171 1.01862C11.8907 0.994537 11.7642 1.00056 11.6378 1.00056C8.42303 1.00056 5.20224 1.00658 1.98747 0.994537C1.56004 0.994537 1.22893 1.10892 0.994141 1.47013C0.994141 5.03407 0.994141 8.59802 0.994141 12.162C1.21087 12.4991 1.48779 12.7519 1.92125 12.6014Z" fill="#F2F2F2"/>
<path d="M10.0361 8.52578C9.51836 9.04351 9.00063 9.56125 8.47687 10.085C7.86883 10.693 7.90495 10.9278 8.44677 11.578C8.7839 11.9814 9.09695 12.469 9.22939 12.9687C9.4702 13.8657 9.03675 14.5941 8.39259 15.2202C7.88087 15.7139 7.88689 16.0329 8.37453 16.5326C8.96451 17.1346 9.5605 17.7306 10.1625 18.3206C10.6441 18.7962 10.9813 18.7902 11.4809 18.3146C11.6977 18.1099 11.9084 17.8992 12.1612 17.7427C13.1004 17.1647 14.178 17.3393 15.069 18.1761C15.2977 18.3928 15.5686 18.5614 15.8395 18.7721C16.1044 18.6035 16.3212 18.5072 16.4777 18.3507C17.1098 17.7427 17.7239 17.1226 18.3379 16.4965C18.7714 16.057 18.7533 15.7078 18.3259 15.2443C18.1031 15.0035 17.8683 14.7687 17.7058 14.4918C17.1279 13.5165 17.3386 12.481 18.2657 11.5359C18.7954 10.9941 18.7954 10.681 18.2717 10.1512C17.7239 9.59737 17.17 9.04351 16.6161 8.49568C16.0021 7.88162 15.7793 7.91774 15.1231 8.46558C14.7198 8.80271 14.2322 9.10974 13.7325 9.2482C12.8957 9.47697 12.1853 9.10974 11.5833 8.50772C10.9331 7.85152 10.6983 7.86356 10.0361 8.52578ZM15.8576 9.75991C16.2008 10.1151 16.5559 10.4823 16.9232 10.8616C15.665 12.5051 15.6589 14.1787 16.9232 15.8403C16.562 16.2015 16.2008 16.5627 15.8335 16.9299C14.178 15.6717 12.5044 15.6717 10.8247 16.954C10.4695 16.5868 10.1264 16.2316 9.76519 15.8583C11.0234 14.2028 11.0354 12.5111 9.74111 10.8315C10.1023 10.4703 10.4575 10.1211 10.8187 9.75991C12.4923 11.0302 14.1659 11.0422 15.8576 9.75991Z" fill="#F2F2F2"/>
<path d="M33.4672 18.3146C33.9549 18.7962 34.2679 18.7661 34.7917 18.3206C35.1408 18.0196 35.5141 17.6945 35.9355 17.544C36.8987 17.1888 37.7295 17.5199 38.4339 18.2363C39.0118 18.8263 39.3188 18.8203 39.8847 18.2604C40.4627 17.6885 41.0346 17.1166 41.6065 16.5386C42.1002 16.0389 42.0761 15.744 41.6065 15.2202C41.3235 14.8951 41.0105 14.552 40.86 14.1667C40.4627 13.1493 40.7938 12.2884 41.5583 11.5419C42.1242 10.988 42.1122 10.693 41.5523 10.1271C40.9804 9.5492 40.4085 8.97729 39.8305 8.40537C39.3309 7.91172 39.0359 7.9358 38.5121 8.39935C38.187 8.6823 37.8499 8.99535 37.4586 9.14585C36.4894 9.52512 35.6345 9.24819 34.9 8.51975C34.6893 8.30905 34.4244 8.15252 34.1595 7.95386C33.9187 8.10436 33.708 8.18262 33.5575 8.32711C32.9073 8.95321 32.2692 9.59736 31.6371 10.2475C31.2398 10.6569 31.2518 11.0121 31.6311 11.4335C31.8478 11.6743 32.0946 11.9031 32.2692 12.18C32.8772 13.1493 32.6786 14.2209 31.7455 15.1841C31.2036 15.744 31.2036 16.051 31.7515 16.6048C32.3174 17.1647 32.8893 17.7427 33.4672 18.3146ZM33.0699 10.8676C33.4431 10.5305 33.8164 10.1873 34.2137 9.82613C35.8031 11.0422 37.4947 11.0422 39.1563 9.76593C39.5235 10.1271 39.8787 10.4763 40.2399 10.8315C38.9697 12.5051 38.9576 14.1847 40.2219 15.8463C39.8546 16.2256 39.5115 16.5868 39.1743 16.942C37.0251 15.6597 36.1462 15.6657 34.1174 16.954C33.7743 16.5988 33.4311 16.2436 33.0639 15.8583C34.3161 14.2209 34.3401 12.5472 33.0699 10.8676Z" fill="#F2F2F2"/>
<path d="M6.47801 6.49697C6.42985 6.53309 6.38169 6.57523 6.34557 6.62941C5.68335 7.56254 4.8044 7.96589 3.66057 7.75519C3.60037 7.74315 3.53415 7.74917 3.47394 7.75519C3.05253 7.78529 2.78162 8.03814 2.76356 8.41741C2.7455 8.81474 3.01039 9.11575 3.44986 9.15187C3.79301 9.17595 4.13616 9.15789 4.47931 9.15789C4.47931 9.15789 4.47931 9.15789 4.47931 9.16391C4.63584 9.16391 4.79236 9.14585 4.94889 9.16993C5.56294 9.25421 6.0265 9.01942 6.42383 8.55587C6.81514 8.11038 7.21247 7.65284 7.68204 7.30367C8.92822 6.38861 9.39177 5.19661 9.14495 3.69157C9.13893 3.66147 9.14495 3.63137 9.14495 3.59525C9.12689 3.07751 8.862 2.7765 8.44059 2.7765C8.01315 2.7765 7.67602 3.08955 7.75429 3.58923C7.95897 4.85346 7.47134 5.77455 6.47801 6.49697Z" fill="#F2F2F2"/>
<path d="M46.3979 7.76724C45.1698 7.95988 44.2607 7.51439 43.5624 6.53912C43.5443 6.51504 43.5202 6.49096 43.4962 6.4729C42.5329 5.7565 42.0333 4.85347 42.2379 3.60128C42.3222 3.09558 41.9911 2.78254 41.5697 2.77652C41.1302 2.77049 40.8593 3.07752 40.8533 3.62536C40.8473 4.18524 40.8112 4.75113 40.8653 5.31101C40.8954 5.61202 41.0279 5.95517 41.2266 6.17189C41.8767 6.88829 42.6172 7.52041 43.2553 8.24283C43.8694 8.92913 44.5316 9.39268 45.4949 9.1579C45.7898 9.1579 46.0909 9.16392 46.3858 9.1579C46.9337 9.14586 47.2407 8.87495 47.2287 8.43548C47.2166 8.00202 46.9096 7.68296 46.3979 7.76724Z" fill="#F2F2F2"/>
<path d="M18.9105 3.37853C18.8744 3.15579 18.6155 2.87886 18.4048 2.81264C18.2121 2.75244 17.875 2.88488 17.7185 3.04742C17.3753 3.40261 17.5078 5.73242 17.8449 6.09965C17.9172 6.17791 17.9954 6.25618 18.0737 6.33444C18.6998 6.96054 19.362 7.56255 19.952 8.23079C20.56 8.91709 21.2162 9.39269 22.0349 9.15188C22.5105 9.15188 22.8417 9.16392 23.1667 9.15188C23.6363 9.1278 23.9433 8.83281 23.9373 8.43548C23.9313 8.03815 23.6243 7.76122 23.1427 7.74918C22.7032 7.73714 22.2697 7.77326 21.8303 7.73714C21.6196 7.71908 21.3727 7.6348 21.2282 7.49633C20.5359 6.84013 19.8617 6.17189 19.2115 5.47957C19.073 5.32907 18.9827 5.08224 18.9647 4.87154C18.9285 4.37788 18.9948 3.86617 18.9105 3.37853Z" fill="#F2F2F2"/>
<path d="M29.8428 6.43074C29.7947 6.46686 29.7465 6.51502 29.7104 6.56318C29.012 7.51437 28.1271 7.95986 26.911 7.76722C26.3812 7.68294 26.0381 8.03211 26.0501 8.45954C26.0561 8.88697 26.3872 9.15186 26.9351 9.15788C27.4829 9.1639 28.0307 9.20604 28.5726 9.13982C28.8856 9.1037 29.2408 8.97125 29.4696 8.76055C30.1739 8.12241 30.794 7.38795 31.5104 6.76787C32.2208 6.14779 32.6603 5.46751 32.4134 4.58255C32.4134 4.11297 32.4375 3.7337 32.4074 3.36647C32.3833 3.00526 32.1485 2.80058 31.7934 2.7765C31.4141 2.75241 31.1673 2.93302 31.077 3.30627C31.0469 3.42667 31.0107 3.55912 31.0348 3.6735C31.2696 4.87152 30.7699 5.73842 29.8428 6.43074Z" fill="#F2F2F2"/>
<path d="M8.53799 20.2772C8.08046 19.8798 7.67109 19.4223 7.24366 18.9949C5.76871 17.5199 5.76871 17.5199 3.67971 17.5621C3.66165 17.5621 3.64961 17.5621 3.63155 17.5621C3.05964 17.5801 2.76465 17.8149 2.76465 18.2604C2.76465 18.7059 3.07168 19.037 3.61951 18.9527C4.88375 18.7541 5.76871 19.2718 6.48512 20.229C6.51522 20.2651 6.54532 20.3012 6.58144 20.3253C7.52058 20.9936 7.96006 21.8785 7.73731 23.0404C7.73129 23.0826 7.73731 23.1367 7.73731 23.1789C7.76139 23.6484 8.05036 23.9555 8.44769 23.9495C8.82696 23.9434 9.11593 23.6424 9.14001 23.203C9.15807 22.8779 9.14603 22.5468 9.14603 22.2217C9.14603 22.0651 9.12797 21.9086 9.15205 21.7521C9.23633 21.138 9.00155 20.6805 8.53799 20.2772Z" fill="#F2F2F2"/>
<path d="M19.2226 21.2283C19.8668 20.5481 20.523 19.8858 21.2093 19.2417C21.3718 19.0912 21.6307 19.0009 21.8595 18.9768C22.2929 18.9347 22.7324 18.9768 23.1659 18.9587C23.6475 18.9347 23.9485 18.6517 23.9485 18.2604C23.9485 17.8631 23.6475 17.5861 23.1659 17.5681C22.8528 17.556 22.5398 17.5681 22.2327 17.5681C21.9377 17.5681 21.6307 17.5259 21.3478 17.5801C21.0708 17.6343 20.7638 17.7306 20.5651 17.9112C19.6501 18.7781 18.7591 19.6751 17.8862 20.5902C17.7176 20.7648 17.5972 21.0477 17.5791 21.2825C17.537 21.9026 17.5551 22.5287 17.5671 23.1548C17.5791 23.6424 17.85 23.9434 18.2414 23.9555C18.6507 23.9675 18.9397 23.6545 18.9638 23.1488C18.9818 22.7153 18.9397 22.2758 18.9818 21.8424C18.9879 21.6197 19.0782 21.3728 19.2226 21.2283Z" fill="#F2F2F2"/>
<path d="M31.0345 23.1548C31.0706 23.6424 31.3295 23.9434 31.7268 23.9495C32.1362 23.9615 32.4252 23.6424 32.4372 23.1367C32.4493 22.5588 32.4854 21.9809 32.4252 21.4089C32.3951 21.0959 32.2506 20.7407 32.0399 20.5119C31.4018 19.8076 30.6733 19.1815 30.0412 18.4771C29.4271 17.7908 28.7649 17.3393 27.9161 17.5801C27.4405 17.5801 27.0853 17.5681 26.7241 17.5861C26.3207 17.6042 26.098 17.851 26.0558 18.2363C26.0137 18.5915 26.3027 18.8925 26.706 18.9587C26.7843 18.9708 26.8625 18.9888 26.9408 18.9768C28.1749 18.73 29.0599 19.2658 29.7703 20.2169C29.8004 20.2531 29.8305 20.2892 29.8666 20.3133C30.7937 20.9875 31.2693 21.8544 31.0345 23.0284C31.0285 23.0585 31.0345 23.1066 31.0345 23.1548Z" fill="#F2F2F2"/>
<path d="M42.497 21.2524C43.1411 20.5721 43.8034 19.9099 44.4836 19.2718C44.6522 19.1092 44.9291 19.0069 45.1639 18.9828C45.6395 18.9346 46.1332 18.9768 46.6088 18.9407C47.0061 18.9106 47.2288 18.6577 47.2228 18.2483C47.2108 17.845 46.982 17.6102 46.5847 17.5801C46.2295 17.556 45.8683 17.5741 45.5071 17.5741C45.5071 17.5681 45.5071 17.5681 45.5071 17.562C45.194 17.562 44.8749 17.5259 44.5739 17.5741C44.3452 17.6102 44.0743 17.6945 43.9117 17.851C42.9666 18.7601 42.0394 19.6872 41.1304 20.6323C40.9739 20.7949 40.8715 21.0658 40.8535 21.2946C40.8173 21.9146 40.8294 22.5407 40.8474 23.1668C40.8595 23.6424 41.1545 23.9494 41.5518 23.9494C41.9491 23.9494 42.2381 23.6424 42.2501 23.1668C42.2622 22.7153 42.2321 22.2578 42.2622 21.8123C42.2803 21.6196 42.3645 21.3909 42.497 21.2524Z" fill="#F2F2F2"/>
<path d="M39.1678 42.0702C39.4267 41.8896 39.6494 41.7812 39.824 41.6126C40.408 41.0528 40.9799 40.4688 41.5518 39.8969C42.1177 39.331 42.1237 39.042 41.5638 38.4821C41.1605 38.0788 40.8294 37.6333 40.7391 37.0493C40.5886 36.1283 40.9558 35.4179 41.5999 34.7918C42.1117 34.2981 42.1056 33.9791 41.618 33.4794C41.028 32.8774 40.432 32.2814 39.83 31.6914C39.3604 31.2278 39.0173 31.2278 38.5417 31.6673C38.3129 31.878 38.0902 32.1068 37.8313 32.2693C36.8561 32.8713 35.7965 32.6727 34.8333 31.7335C34.2915 31.2038 33.9724 31.2038 33.4486 31.7215C32.8587 32.3055 32.2747 32.8894 31.6968 33.4794C31.2332 33.949 31.2392 34.2861 31.6787 34.7677C31.9015 35.0085 32.1362 35.2433 32.2988 35.5202C32.8767 36.4955 32.666 37.531 31.7389 38.4761C31.2091 39.0179 31.2091 39.331 31.7329 39.8608C32.2928 40.4267 32.8587 40.9865 33.4185 41.5524C33.9905 42.1183 34.2674 42.1244 34.8333 41.5645C35.2366 41.1611 35.6821 40.836 36.2661 40.7397C37.145 40.6012 37.8494 40.9203 38.4574 41.5344C38.644 41.7391 38.9029 41.8775 39.1678 42.0702ZM34.1229 40.2581C33.7978 39.8969 33.4607 39.5236 33.0874 39.1082C33.6292 38.452 34.0085 37.6273 34.0025 36.6701C34.0025 35.7129 33.6654 34.87 33.0272 34.1416C33.4065 33.7744 33.7617 33.4312 34.147 33.058C35.7303 34.3463 37.6507 34.2861 39.1558 33.052C39.4929 33.4312 39.83 33.8105 40.1912 34.2199C39.6314 34.858 39.2882 35.7008 39.2942 36.652C39.3002 37.5851 39.6073 38.428 40.2575 39.1323C39.8661 39.5056 39.5049 39.8547 39.1257 40.216C37.4882 38.9878 35.8146 38.9638 34.1229 40.2581Z" fill="#F2F2F2"/>
<path d="M43.4726 43.5572C43.5207 43.521 43.5689 43.4729 43.605 43.4247C44.2853 42.4615 45.1883 42.0461 46.3683 42.2568C46.4164 42.2628 46.4646 42.2568 46.5067 42.2568C46.9522 42.2267 47.2292 41.9558 47.2292 41.5585C47.2292 41.1672 46.9522 40.8842 46.5067 40.8541C46.1816 40.836 45.8505 40.8481 45.5254 40.8481C45.3208 40.8481 45.1161 40.8662 44.9174 40.8421C44.4117 40.7879 44.0264 40.9805 43.6773 41.3478C42.8826 42.1846 42.0337 42.9672 41.2451 43.816C41.0344 44.0448 40.8959 44.4 40.8658 44.7191C40.8056 45.2729 40.8418 45.8388 40.8538 46.4047C40.8598 46.9285 41.1187 47.2295 41.5401 47.2355C41.9796 47.2475 42.3287 46.9224 42.2384 46.3927C42.0398 45.1585 42.5154 44.2615 43.4726 43.5572Z" fill="#F2F2F2"/>
<path d="M29.8185 29.7529C29.7463 29.8071 29.674 29.8793 29.6199 29.9516C28.9817 30.8365 28.1509 31.2459 27.0553 31.0412C26.977 31.0292 26.8987 31.0352 26.8205 31.0412C26.3449 31.0834 26.0439 31.3663 26.0499 31.7576C26.0619 32.155 26.3629 32.4259 26.8506 32.4379C27.4285 32.4499 28.0125 32.4861 28.5844 32.4259C28.8974 32.3958 29.2526 32.2573 29.4874 32.0466C30.1918 31.4085 30.8179 30.68 31.5283 30.0479C32.2206 29.4338 32.66 28.7656 32.4132 27.8806C32.4132 27.4171 32.4373 27.0198 32.4072 26.6345C32.3771 26.2672 32.0941 26.0385 31.7691 26.0806C31.5282 26.1167 31.2935 26.3575 31.0948 26.5442C31.0165 26.6224 31.0105 26.8211 31.0346 26.9475C31.2634 28.1696 30.7697 29.0606 29.8185 29.7529Z" fill="#F2F2F2"/>
<path d="M41.5402 26.0565C41.1127 26.0625 40.8539 26.3936 40.8478 26.9415C40.8418 27.4893 40.7997 28.0371 40.8659 28.579C40.902 28.892 41.0405 29.2472 41.2452 29.476C41.8833 30.1803 42.6178 30.8004 43.2379 31.5168C43.8579 32.2332 44.5442 32.6667 45.3991 32.4258C45.8747 32.4258 46.2359 32.4439 46.5911 32.4198C46.9704 32.3957 47.1931 32.173 47.2232 31.7937C47.2473 31.3904 47.0426 31.1496 46.6513 31.0653C46.5429 31.0412 46.4285 31.0171 46.3262 31.0352C45.1282 31.276 44.2613 30.7643 43.575 29.8432C43.5389 29.795 43.4907 29.7469 43.4425 29.7108C42.4914 29.0124 42.0459 28.1274 42.2385 26.9114C42.3228 26.3876 41.9736 26.0505 41.5402 26.0565Z" fill="#F2F2F2"/>
<path d="M32.4259 44.5986C32.3838 44.3518 32.2935 44.0749 32.1249 43.9003C31.2279 42.9672 30.3128 42.0521 29.3797 41.1491C29.2232 40.9986 28.9764 40.8782 28.7657 40.8661C28.1155 40.83 27.4533 40.836 26.8031 40.8541C26.3395 40.8661 26.0325 41.1852 26.0506 41.5765C26.0686 41.9618 26.3576 42.2327 26.8091 42.2448C27.2606 42.2568 27.7181 42.2207 28.1636 42.2628C28.3743 42.2809 28.6152 42.3712 28.7657 42.5157C29.458 43.1719 30.1322 43.8401 30.7884 44.5324C30.9209 44.6709 31.0112 44.8997 31.0232 45.0983C31.0593 45.592 31.0292 46.0977 31.0593 46.5913C31.0894 46.9826 31.3303 47.2114 31.7336 47.2234C32.1189 47.2355 32.3898 46.9826 32.4199 46.5552C32.444 46.2121 32.4259 45.8689 32.4259 45.5258C32.4319 45.5258 32.4319 45.5258 32.438 45.5258C32.438 45.2247 32.4801 44.9057 32.4259 44.5986Z" fill="#F2F2F2"/>
<path d="M8.45321 34.8761C8.79034 35.2794 9.10339 35.7671 9.23583 36.2667C9.47664 37.1637 9.04319 37.8922 8.39903 38.5123C7.89334 39.0059 7.89936 39.331 8.38699 39.8246C8.97697 40.4267 9.57296 41.0227 10.181 41.6066C10.3556 41.7692 10.5783 41.8835 10.8372 42.0581C11.09 41.8775 11.3309 41.7451 11.5235 41.5585C11.9329 41.1611 12.3723 40.83 12.9563 40.7337C13.8774 40.5832 14.5878 40.9444 15.2139 41.5946C15.7075 42.1063 16.0266 42.1003 16.5263 41.6126C17.1283 41.0227 17.7243 40.4267 18.3143 39.8246C18.7778 39.3551 18.7778 39.0119 18.3383 38.5363C18.1276 38.3076 17.8989 38.0848 17.7363 37.826C17.1343 36.8507 17.333 35.7911 18.2721 34.8279C18.7959 34.2861 18.8019 33.967 18.2842 33.4433C17.7002 32.8533 17.1162 32.2693 16.5263 31.6914C16.0567 31.2278 15.7196 31.2339 15.2379 31.6733C14.9971 31.8961 14.7624 32.1309 14.4854 32.2934C13.5102 32.8713 12.4747 32.6606 11.5235 31.7335C10.9817 31.2038 10.6686 31.2038 10.1389 31.7275C9.585 32.2754 9.03115 32.8292 8.48331 33.3831C7.86925 33.9971 7.90538 34.2259 8.45321 34.8761ZM10.9034 33.1182C12.4927 34.3343 14.1724 34.3463 15.8219 33.0881C16.1831 33.4493 16.5443 33.8105 16.9116 34.1777C15.6594 35.8152 15.6594 37.4948 16.9417 39.1745C16.5744 39.5236 16.2192 39.8668 15.84 40.228C14.2025 38.9818 12.5108 38.9698 10.8432 40.2461C10.488 39.8788 10.1449 39.5236 9.77765 39.1504C11.0178 37.5249 11.0419 35.8513 9.74755 34.1416C10.1208 33.8105 10.5001 33.4734 10.9034 33.1182Z" fill="#F2F2F2"/>
<path d="M3.55283 42.2448C4.84717 42.016 5.76223 42.5578 6.50271 43.5391C6.56894 43.6234 6.6472 43.7077 6.73148 43.7679C7.56829 44.3639 7.91746 45.1585 7.73685 46.1759C7.71879 46.2843 7.73083 46.3927 7.73685 46.501C7.76695 46.9465 8.03184 47.2295 8.42315 47.2355C8.82048 47.2415 9.10343 46.9646 9.13353 46.5251C9.15159 46.2 9.13955 45.8689 9.13955 45.5438C9.13955 45.5438 9.13955 45.5438 9.14557 45.5438C9.14557 45.2609 9.18771 44.9719 9.13353 44.701C9.07333 44.412 8.98905 44.0749 8.7964 43.8702C7.9295 42.9491 7.03249 42.0581 6.11742 41.1852C5.9308 41.0106 5.63581 40.8842 5.37694 40.8662C4.76891 40.818 4.16087 40.8421 3.55283 40.8541C3.04112 40.8662 2.74613 41.1491 2.75817 41.5826C2.77623 41.9919 3.08326 42.323 3.55283 42.2448Z" fill="#F2F2F2"/>
<path d="M6.03341 32.2151C6.12973 32.1369 6.21401 32.0406 6.29829 31.9563C6.93643 31.3181 7.55049 30.6439 8.22475 30.0479C8.91105 29.4398 9.38062 28.7836 9.13981 27.9529C9.13981 27.4652 9.15788 27.1221 9.13379 26.7789C9.10369 26.3455 8.79666 26.0505 8.41739 26.0625C8.0321 26.0746 7.75517 26.3695 7.73711 26.815C7.72507 27.2666 7.76119 27.7241 7.71905 28.1696C7.70099 28.3803 7.61069 28.6211 7.47223 28.7716C6.82807 29.4519 6.17187 30.1201 5.48557 30.7583C5.31701 30.9148 5.03406 31.0111 4.79927 31.0352C4.31766 31.0833 3.824 31.0111 3.35443 31.0954C3.1377 31.1375 2.86077 31.3904 2.79455 31.6071C2.74037 31.7997 2.87282 32.1309 3.03536 32.2934C3.36045 32.5944 5.69628 32.5041 6.03341 32.2151Z" fill="#F2F2F2"/>
<path d="M17.9352 29.476C18.5733 30.1803 19.3018 30.8004 19.9339 31.5108C20.554 32.2151 21.2282 32.6727 22.2095 32.4439C22.5045 32.4439 22.7995 32.4499 23.1005 32.4439C23.6243 32.4259 23.9373 32.173 23.9494 31.7636C23.9614 31.3422 23.6243 30.969 23.1005 31.0593C21.8182 31.27 20.9272 30.7282 20.1928 29.7649C20.1627 29.7288 20.1326 29.6927 20.0964 29.6686C19.1934 29.0124 18.7539 28.1636 18.9707 27.0318C18.9827 26.9716 18.9707 26.9054 18.9707 26.8452C18.9285 26.3635 18.6576 26.0625 18.2663 26.0625C17.869 26.0625 17.586 26.3635 17.574 26.8452C17.5559 27.4351 17.5318 28.0311 17.586 28.6211C17.5981 28.9161 17.7305 29.2592 17.9352 29.476Z" fill="#F2F2F2"/>
<path d="M23.2029 40.8601C22.8778 40.8421 22.5467 40.8541 22.2216 40.8541C22.0651 40.8541 21.9086 40.8722 21.752 40.8481C21.138 40.7638 20.6744 40.9926 20.2771 41.4561C19.8798 41.9136 19.4222 42.323 18.9948 42.7504C17.5199 44.2254 17.5199 44.2254 17.556 46.3084C17.556 46.3264 17.556 46.3385 17.556 46.3565C17.574 46.9284 17.8028 47.2234 18.2483 47.2295C18.6938 47.2355 19.0309 46.9284 18.9406 46.3746C18.742 45.1104 19.2537 44.2254 20.2169 43.509C20.2651 43.4729 20.3132 43.4247 20.3494 43.3765C21.0116 42.4494 21.8905 42.034 23.0343 42.2508C23.0765 42.2568 23.1307 42.2508 23.1728 42.2508C23.6424 42.2267 23.9554 41.9437 23.9494 41.5464C23.9374 41.1732 23.6424 40.8842 23.2029 40.8601Z" fill="#F2F2F2"/>
</svg>
