<svg width="78" height="36" viewBox="0 0 78 36" fill="none" xmlns="http://www.w3.org/2000/svg">
<path d="M76.0516 36H1.04482C0.464366 36 0 35.5356 0 34.9552V16.1135C0 15.533 0.464366 15.0687 1.04482 15.0687H76.0516C76.632 15.0687 77.0964 15.533 77.0964 16.1135V34.9552C77.0964 35.524 76.632 36 76.0516 36ZM2.08965 33.9103H75.0068V17.1583H2.08965V33.9103Z" fill="#F2F2F2"/>
<path d="M71.0244 17.1583C70.444 17.1583 69.9796 16.694 69.9796 16.1135V2.08965H7.11602V16.1135C7.11602 16.694 6.65165 17.1583 6.07119 17.1583C5.49073 17.1583 5.02637 16.694 5.02637 16.1135V1.04482C5.02637 0.464366 5.49073 0 6.07119 0H71.036C71.6165 0 72.0809 0.464366 72.0809 1.04482V16.1135C72.0693 16.6824 71.6049 17.1583 71.0244 17.1583Z" fill="#F2F2F2"/>
<path d="M33.3302 16.7636H13.8617C11.9461 16.7636 10.3789 15.208 10.3789 13.2809C10.3789 11.3654 11.9345 9.79813 13.8617 9.79813H33.3302C35.2457 9.79813 36.813 11.3538 36.813 13.2809C36.813 15.208 35.2457 16.7636 33.3302 16.7636ZM13.8617 11.8994C13.0954 11.8994 12.4686 12.5263 12.4686 13.2925C12.4686 14.0587 13.0954 14.6856 13.8617 14.6856H33.3302C34.0964 14.6856 34.7233 14.0587 34.7233 13.2925C34.7233 12.5263 34.0964 11.8994 33.3302 11.8994H13.8617Z" fill="#F2F2F2"/>
<path d="M62.6779 16.7636H43.2093C41.2938 16.7636 39.7266 15.208 39.7266 13.2809C39.7266 11.3654 41.2822 9.79813 43.2093 9.79813H62.6779C64.5934 9.79813 66.1606 11.3538 66.1606 13.2809C66.1606 15.208 64.605 16.7636 62.6779 16.7636ZM43.2093 11.8994C42.4431 11.8994 41.8162 12.5263 41.8162 13.2925C41.8162 14.0587 42.4431 14.6856 43.2093 14.6856H62.6779C63.4441 14.6856 64.071 14.0587 64.071 13.2925C64.071 12.5263 63.4441 11.8994 62.6779 11.8994H43.2093Z" fill="#F2F2F2"/>
</svg>
