<svg width="64" height="58" viewBox="0 0 64 58" fill="none" xmlns="http://www.w3.org/2000/svg">
<path d="M40.164 20.4493C40.2736 20.4493 40.3722 20.4164 40.4708 20.3836H58.6626C59.8791 20.3836 60.8544 19.3973 60.8544 18.1918C60.8544 16.9753 59.8681 16 58.6626 16C58.5969 16 58.5421 16.0219 58.4763 16.0329C58.4106 16.0219 58.3558 16 58.29 16H39.89C39.7695 16 39.6599 15.9014 39.6599 15.7808C39.6599 15.6603 39.7585 15.5616 39.89 15.5616H58.9585C59.5065 15.5616 59.9448 15.1233 59.9448 14.5753C59.9448 14.0274 59.5065 13.589 58.9585 13.589H39.89C38.6736 13.589 37.6982 14.5753 37.6982 15.7808C37.6982 16.9973 38.6845 17.9836 39.89 17.9836H58.301C58.3667 17.9836 58.4215 17.9616 58.4873 17.9507C58.553 17.9616 58.6078 17.9836 58.6736 17.9836C58.7941 17.9836 58.9037 18.0822 58.9037 18.2027C58.9037 18.3233 58.8051 18.4219 58.6736 18.4219H40.427C40.3065 18.4219 40.1969 18.4548 40.0873 18.4877C38.9037 18.5205 37.9613 19.4849 37.9613 20.6794C37.9613 21.8959 38.9476 22.8822 40.153 22.8822H59.09C59.638 22.8822 60.0763 22.4438 60.0763 21.8959C60.0763 21.3479 59.638 20.9096 59.09 20.9096H40.164C40.0434 20.9096 39.9339 20.811 39.9339 20.6904C39.9339 20.5479 40.0434 20.4493 40.164 20.4493Z" fill="#F2F2F2"/>
<path d="M32.2627 14.2137H28.734V6.29041C28.734 2.8274 25.9066 0 22.4436 0C18.9696 0 16.1532 2.81644 16.1532 6.29041C16.1532 6.83836 16.5915 7.27671 17.1395 7.27671C17.6874 7.27671 18.1258 6.83836 18.1258 6.29041C18.1258 3.91233 20.0655 1.98356 22.4436 1.98356C24.8216 1.98356 26.7614 3.91233 26.7614 6.29041V12.6795L25.1285 11.3425C24.7121 11.0027 24.0874 11.0575 23.7367 11.4849C23.386 11.9014 23.4518 12.526 23.8792 12.8767L25.534 14.2247H6.92575C6.37781 14.2247 5.93945 14.663 5.93945 15.211V17.5342C5.93945 20.6466 8.47096 23.1781 11.5833 23.1781H27.5942C30.7066 23.1781 33.2381 20.6466 33.2381 17.5342V15.211C33.249 14.6521 32.7997 14.2137 32.2627 14.2137ZM31.2764 17.5233C31.2764 19.5507 29.6326 21.1945 27.6052 21.1945H11.5833C9.55589 21.1945 7.91206 19.5507 7.91206 17.5233V16.1863H31.2655V17.5233H31.2764Z" fill="#F2F2F2"/>
<path d="M63.0137 21.9726H0.986301C0.438356 21.9726 0 22.411 0 22.9589V27.3534C0 27.9014 0.438356 28.3397 0.986301 28.3397H1.75342V51.3973C1.73151 51.4849 1.69863 51.5616 1.69863 51.6493V56.5589C1.69863 57.1068 2.13699 57.5452 2.68493 57.5452C3.23288 57.5452 3.67123 57.1068 3.67123 56.5589V54.0822H60.1644V56.5589C60.1644 57.1068 60.6027 57.5452 61.1507 57.5452C61.6986 57.5452 62.137 57.1068 62.137 56.5589V53.0959V51.6493V28.3397H63.0137C63.5616 28.3397 64 27.9014 64 27.3534V22.9589C64 22.411 63.5616 21.9726 63.0137 21.9726ZM1.9726 23.9452H62.0274V26.3671H1.9726V23.9452ZM60.1644 51.6383V52.0986H3.72603V28.3397H60.1644V51.6383Z" fill="#F2F2F2"/>
<path d="M6.82712 50.2027H31.9011C32.449 50.2027 32.8874 49.7644 32.8874 49.2164V31.9014C32.8874 31.3534 32.449 30.9151 31.9011 30.9151H6.82712C6.27918 30.9151 5.84082 31.3534 5.84082 31.9014V49.2164C5.84082 49.7644 6.27918 50.2027 6.82712 50.2027ZM7.81342 48.2301V41.6767H30.9148V48.2301H7.81342ZM30.9148 32.8877V39.7041H7.81342V32.8877H30.9148Z" fill="#F2F2F2"/>
<path d="M36.3398 50.2027H57.2713C57.8193 50.2027 58.2576 49.7644 58.2576 49.2164V31.9014C58.2576 31.3534 57.8193 30.9151 57.2713 30.9151H36.3398C35.7919 30.9151 35.3535 31.3534 35.3535 31.9014V49.2164C35.3535 49.7644 35.8028 50.2027 36.3398 50.2027ZM37.3261 32.8877H56.285V48.2301H37.3261V32.8877Z" fill="#F2F2F2"/>
<path d="M39.1894 36.5918C38.6415 36.5918 38.2031 37.0301 38.2031 37.5781V42.4877C38.2031 43.0356 38.6415 43.474 39.1894 43.474C39.7374 43.474 40.1757 43.0356 40.1757 42.4877V37.5781C40.1757 37.0411 39.7264 36.5918 39.1894 36.5918Z" fill="#F2F2F2"/>
<path d="M14.1806 35.6712H24.5587C25.1067 35.6712 25.545 35.2329 25.545 34.6849C25.545 34.137 25.1067 33.6986 24.5587 33.6986H14.1806C13.6327 33.6986 13.1943 34.137 13.1943 34.6849C13.1943 35.2329 13.6327 35.6712 14.1806 35.6712Z" fill="#F2F2F2"/>
<path d="M24.548 42.4219H14.1699C13.622 42.4219 13.1836 42.8603 13.1836 43.4082C13.1836 43.9562 13.622 44.3945 14.1699 44.3945H24.548C25.0959 44.3945 25.5343 43.9562 25.5343 43.4082C25.5343 42.8603 25.0959 42.4219 24.548 42.4219Z" fill="#F2F2F2"/>
</svg>
