<svg width="92" height="35" viewBox="0 0 92 35" fill="none" xmlns="http://www.w3.org/2000/svg">
<path d="M91.9702 21.464C91.9702 21.4441 91.9801 21.4342 91.9801 21.4143V12.1089C91.9801 9.85217 90.469 7.9732 88.4111 7.34688C88.4111 7.32699 88.4111 7.30711 88.4111 7.28723C87.4169 2.99244 83.6391 0 79.2349 0H13.0633C8.64923 0 4.83164 3.11174 3.88718 7.34688C1.68014 7.87378 0.0298249 9.84223 0.0298249 12.2083V21.4938C0.0198833 21.5336 0 21.5734 0 21.6231V30.4612C0 30.9583 0.397666 31.356 0.894748 31.356H2.01815V33.225C2.01815 33.7221 2.41582 34.1197 2.9129 34.1197C3.40999 34.1197 3.80765 33.7221 3.80765 33.225V31.356H87.9339V33.225C87.9339 33.7221 88.3315 34.1197 88.8286 34.1197C89.3257 34.1197 89.7234 33.7221 89.7234 33.225V31.356H91.1053C91.6023 31.356 92 30.9583 92 30.4612V21.6231C92 21.5634 91.9801 21.5137 91.9702 21.464ZM59.6897 20.7184V18.2429H81.9589V20.7184H59.6897ZM10.0411 18.2429H30.7793V20.7184H10.0411V18.2429ZM32.5688 18.2429H57.9002V20.7184H32.5688V18.2429ZM32.5688 16.4534V1.7895H57.9002V16.4534H32.5688ZM90.1906 12.1089V20.5196H83.7484V12.1089C83.7484 10.3393 85.19 8.89777 86.9795 8.89777C88.7491 8.89777 90.1906 10.3393 90.1906 12.1089ZM86.5122 7.15799C83.9671 7.38664 81.9589 9.50422 81.9589 12.1089V16.4534H59.6897V1.7895H79.2349C82.6151 1.7895 85.5379 3.96672 86.5122 7.15799ZM13.0633 1.7895H30.7793V16.4534H10.0411V12.2083C10.0411 9.70305 8.18198 7.63519 5.75621 7.27729C6.69073 4.08602 9.65334 1.7895 13.0633 1.7895ZM1.81932 12.2083C1.81932 10.4387 3.26086 8.99719 5.05036 8.99719C6.81997 8.99719 8.26151 10.4387 8.26151 12.2083V20.619H1.81932V12.2083ZM90.2105 29.5565H1.7895V22.5079H90.2105V29.5565Z" fill="#F2F2F2"/>
</svg>
